<svg width="32" height="32" viewBox="0 0 32 32" fill="none" xmlns="http://www.w3.org/2000/svg">
<g id="github" clip-path="url(#clip0_32_407)">
<path id="Vector" d="M12 25.3333C5.33335 27.3333 5.33335 22 2.66669 21.3333M21.3334 29.3333V24.1733C21.3834 23.5375 21.2975 22.8984 21.0814 22.2984C20.8653 21.6984 20.5239 21.1512 20.08 20.6933C24.2667 20.2267 28.6667 18.64 28.6667 11.36C28.6663 9.49843 27.9503 7.70826 26.6667 6.36C27.2745 4.73134 27.2315 2.93113 26.5467 1.33333C26.5467 1.33333 24.9734 0.866665 21.3334 3.30666C18.2774 2.47843 15.056 2.47843 12 3.30666C8.36002 0.866665 6.78669 1.33333 6.78669 1.33333C6.10186 2.93113 6.05888 4.73134 6.66669 6.36C5.37352 7.71826 4.65672 9.52462 4.66669 11.4C4.66669 18.6267 9.06669 20.2133 13.2534 20.7333C12.8147 21.1866 12.4764 21.7272 12.2604 22.3199C12.0445 22.9126 11.9558 23.5441 12 24.1733V29.3333" stroke="white" stroke-width="3" stroke-linecap="round" stroke-linejoin="round"/>
</g>
<defs>
<clipPath id="clip0_32_407">
<rect width="32" height="32" fill="white"/>
</clipPath>
</defs>
</svg>
