<svg width="32" height="32" viewBox="0 0 32 32" fill="none" xmlns="http://www.w3.org/2000/svg">
<g id="icon-bs 1">
<g clip-path="url(#clip0_24_954)">
<path id="Vector" d="M32 27.5557C32 30.0107 30.0107 32 27.5557 32H4.44433C1.99033 32 0 30.0107 0 27.5557V4.44433C0 1.98933 1.99033 0 4.44433 0H27.5557C30.0107 0 32 1.98933 32 4.44433V27.5557Z" fill="#2E3134"/>
<path id="Vector_2" d="M24.0267 17.4223C23.449 16.6223 22.6133 16.071 21.5377 15.7776C21.5377 15.7776 22.4443 15.449 23.2623 14.2223C23.751 13.44 24 12.4976 24 11.3956C24 9.48431 23.3067 8.01765 21.92 7.01331C20.5333 6.00898 18.969 5.33331 16.311 5.33331H8V26.6666H17.271C19.7867 26.649 21.68 26.1066 22.969 25.0666C24.249 24.009 24.889 22.4443 24.889 20.3556C24.889 19.2 24.6043 18.2223 24.0267 17.4223ZM13.3333 8.88898C13.3333 8.88898 17.04 8.88898 17.111 8.88898C18.4623 8.88898 19.5557 9.98231 19.5557 11.3333C19.5557 12.6843 18.4623 13.7776 17.111 13.7776C17.04 13.7776 13.3333 13.7776 13.3333 13.7776V8.88898ZM17.7777 23.111H13.3333V17.7776H17.7777C19.2533 17.7776 20.4443 18.969 20.4443 20.4443C20.4443 21.92 19.2533 23.111 17.7777 23.111Z" fill="white"/>
</g>
</g>
<defs>
<clipPath id="clip0_24_954">
<rect width="32" height="32" rx="2" fill="white"/>
</clipPath>
</defs>
</svg>
