<svg width="32" height="32" viewBox="0 0 32 32" fill="none" xmlns="http://www.w3.org/2000/svg">
<g id="icon-js 1">
<g clip-path="url(#clip0_24_912)">
<path id="Vector" d="M1.21467 -0.0759888C0.887999 -0.0759888 0.576999 0.0643446 0.360999 0.309345C0.144666 0.554011 0.0443325 0.880011 0.0846659 1.20401L3.121 25.494C3.16833 25.872 3.401 26.201 3.74167 26.3713L15.8867 32.444C16.2073 32.6043 16.5847 32.6043 16.905 32.444L29.0503 26.3713C29.3907 26.201 29.6237 25.872 29.6707 25.494L32.707 1.20401C32.7477 0.880011 32.647 0.554011 32.431 0.309345C32.2147 0.0643446 31.904 -0.0759888 31.5773 -0.0759888H1.21467Z" fill="#2E3134"/>
<path id="Vector_2" fill-rule="evenodd" clip-rule="evenodd" d="M16.396 -0.0759888V32.564C16.2213 32.564 16.047 32.524 15.8867 32.444L3.74167 26.3713C3.401 26.201 3.16833 25.872 3.121 25.494L0.0846659 1.20401C0.0443325 0.880011 0.144666 0.554011 0.360999 0.309345C0.576999 0.0643445 0.887999 -0.0759888 1.21467 -0.0759888H16.396Z" fill="#2E3134"/>
<path id="Vector_3" fill-rule="evenodd" clip-rule="evenodd" d="M14.119 4.47864C14.7477 4.47864 15.2573 4.9883 15.2573 5.61697V25.353C15.2573 25.759 15.0413 26.134 14.6903 26.3376C14.3393 26.5413 13.9063 26.543 13.554 26.3416L8.24033 23.3053C7.69467 22.9933 7.50467 22.2976 7.81667 21.7516C8.12867 21.2056 8.82433 21.016 9.37033 21.328L12.9803 23.391V5.61697C12.9803 4.9883 13.49 4.47864 14.119 4.47864Z" fill="white"/>
<path id="Vector_4" fill-rule="evenodd" clip-rule="evenodd" d="M17.5347 5.61697C17.5347 4.9883 18.0447 4.47864 18.6733 4.47864H26.264C26.893 4.47864 27.4027 4.9883 27.4027 5.61697C27.4027 6.24597 26.893 6.75564 26.264 6.75564H19.812V14.0656L25.258 12.8553C25.6127 12.7766 25.984 12.872 26.257 13.112C26.53 13.352 26.672 13.708 26.639 14.07L25.88 22.4196C25.8443 22.8123 25.6077 23.1586 25.255 23.335L19.1827 26.3713C18.62 26.6526 17.9363 26.4246 17.655 25.862C17.3737 25.2996 17.6017 24.6156 18.1643 24.3346L23.6693 21.582L24.23 15.4166L18.9203 16.5963C18.5833 16.6713 18.2303 16.5893 17.961 16.373C17.6913 16.157 17.5347 15.8303 17.5347 15.485V5.61697Z" fill="#ECEFF1"/>
</g>
</g>
<defs>
<clipPath id="clip0_24_912">
<rect width="32" height="32" rx="2" fill="white"/>
</clipPath>
</defs>
</svg>
