<svg width="32" height="32" viewBox="0 0 32 32" fill="none" xmlns="http://www.w3.org/2000/svg">
<g id="icon-nodejs 1">
<path id="Vector" d="M14.6707 0.425682C15.469 -0.0259847 16.4867 -0.0279846 17.2647 0.425682L29.1813 7.13768C29.9267 7.55635 30.4257 8.38668 30.4187 9.24502V22.703C30.4237 23.5973 29.8757 24.4457 29.0897 24.8563L17.2367 31.5373C17.136 31.593 17.0317 31.642 16.9243 31.6837C16.817 31.7257 16.7073 31.76 16.5953 31.7873C16.4833 31.8147 16.37 31.8343 16.2553 31.8463C16.1407 31.8587 16.0257 31.863 15.9103 31.8597C15.7953 31.8567 15.6807 31.8457 15.567 31.8273C15.453 31.809 15.341 31.783 15.2307 31.7497C15.1203 31.7163 15.0127 31.6757 14.9077 31.628C14.8027 31.5803 14.7017 31.526 14.604 31.4647L11.047 29.411C10.8047 29.2667 10.5323 29.152 10.3607 28.9177C10.5123 28.7143 10.7817 28.6883 11.001 28.5987C11.496 28.441 11.949 28.2 12.404 27.9447C12.5187 27.865 12.6593 27.8947 12.769 27.9667L15.802 29.719C16.0187 29.8437 16.238 29.6793 16.4237 29.5747L28.062 23.012C28.2057 22.9423 28.2853 22.7907 28.2733 22.6333V9.30502C28.2893 9.12535 28.1867 8.96202 28.024 8.88935L16.2013 2.23702C16.167 2.21335 16.1303 2.19568 16.0907 2.18302C16.0513 2.17068 16.0107 2.16468 15.9693 2.16435C15.928 2.16435 15.8873 2.17035 15.848 2.18268C15.8083 2.19468 15.7713 2.21268 15.7373 2.23602L3.93133 8.90235C3.77167 8.97502 3.662 9.13635 3.682 9.31602V22.6443C3.668 22.8017 3.75167 22.9503 3.89633 23.018L7.05133 24.7977C7.644 25.1167 8.37133 25.296 9.02367 25.0617C9.09467 25.035 9.16333 25.003 9.22933 24.966C9.29533 24.9287 9.35833 24.8867 9.418 24.84C9.47767 24.7933 9.53367 24.7427 9.58567 24.6873C9.63767 24.632 9.685 24.5733 9.72833 24.511C9.77133 24.4487 9.80933 24.3833 9.84233 24.315C9.87567 24.247 9.90333 24.1767 9.92567 24.1043C9.948 24.0317 9.965 23.958 9.976 23.8833C9.98733 23.8083 9.99267 23.733 9.99233 23.657L9.99533 10.4083C9.98133 10.212 10.167 10.0497 10.3577 10.0697H11.874C12.0737 10.0647 12.2303 10.276 12.2033 10.4733L12.2003 23.8057C12.2013 24.99 11.7147 26.278 10.618 26.859C9.267 27.557 7.597 27.4103 6.262 26.7393L2.86967 24.8653C2.07167 24.4667 1.536 23.6053 1.541 22.712V9.25402C1.54167 9.14535 1.54967 9.03702 1.565 8.92902C1.58033 8.82135 1.60267 8.71502 1.632 8.61002C1.66133 8.50535 1.69767 8.40302 1.741 8.30302C1.784 8.20302 1.83333 8.10635 1.88933 8.01268C1.94533 7.91935 2.00733 7.83002 2.07533 7.74502C2.143 7.65968 2.21633 7.57968 2.295 7.50402C2.37333 7.42868 2.45667 7.35868 2.54467 7.29435C2.63233 7.23002 2.72433 7.17202 2.82 7.11968L14.6707 0.425682ZM18.1067 9.75468C19.83 9.65468 21.6747 9.68868 23.225 10.537C24.4253 11.187 25.0907 12.5507 25.1127 13.8847C25.0787 14.064 24.8913 14.1637 24.7197 14.1507C24.2207 14.1497 23.72 14.1577 23.219 14.1477C23.0067 14.1557 22.884 13.9603 22.857 13.773C22.7133 13.135 22.365 12.504 21.7643 12.196C20.8427 11.7343 19.773 11.7573 18.7673 11.7673C18.033 11.807 17.2437 11.87 16.6223 12.3007C16.1433 12.6277 15.9997 13.2973 16.1703 13.8177C16.33 14.1997 16.772 14.3223 17.132 14.436C19.2093 14.9783 21.4093 14.9343 23.4477 15.639C24.2907 15.9303 25.1157 16.4963 25.405 17.3787C25.7823 18.561 25.6177 19.9747 24.7767 20.9237C24.094 21.7053 23.1003 22.12 22.1077 22.361C20.7877 22.6553 19.4187 22.6623 18.079 22.5307C16.8187 22.387 15.5077 22.056 14.535 21.1987C13.703 20.477 13.298 19.3527 13.3377 18.268C13.3477 18.0843 13.5303 17.957 13.707 17.972H15.2033C15.405 17.958 15.5527 18.1313 15.5627 18.3207C15.6553 18.919 15.884 19.567 16.4147 19.9157C17.4383 20.5757 18.7223 20.53 19.8937 20.5487C20.8643 20.506 21.954 20.493 22.7473 19.851C23.1663 19.485 23.289 18.874 23.1763 18.3477C23.0533 17.903 22.5777 17.6967 22.1783 17.55C20.1283 16.9023 17.9033 17.1373 15.873 16.4037C15.049 16.1127 14.2517 15.5623 13.9353 14.716C13.4933 13.5197 13.696 12.0373 14.6267 11.1203C15.5247 10.208 16.8417 9.85635 18.089 9.73068L18.1067 9.75468Z" fill="#2E3134"/>
</g>
</svg>
